<svg width="1440" height="299" viewBox="0 0 1440 299" fill="none" xmlns="http://www.w3.org/2000/svg">
<path fill-rule="evenodd" clip-rule="evenodd" d="M0 35L120 57.1272C240 79.2543 480 123.509 720 128.85C960 134.191 1200 101.382 1320 84.5954L1440 68.5723V299H1320C1200 299 960 299 720 299C480 299 240 299 120 299H0V35Z" fill="#66D7D1"/>
<path fill-rule="evenodd" clip-rule="evenodd" d="M233.285 56.4431C229.612 52.27 227.127 47.1557 227.542 41.425C228.739 24.9133 252.481 28.5457 257.1 36.8794C261.718 45.2131 261.169 66.3521 255.2 67.8416C252.82 68.4356 247.749 66.9805 242.588 63.969L245.828 86.1557H226.7L233.285 56.4431Z" fill="#B28B67"/>
<path fill-rule="evenodd" clip-rule="evenodd" d="M249.545 27.8028C246.931 27.0313 243.137 26.7696 241.541 26.9466C242.449 24.8407 242.809 22.4945 242.516 20.21C242.23 17.9902 241.205 16.1002 240.258 14.1196C239.821 13.2067 239.326 12.2987 238.588 11.6004C237.836 10.889 236.885 10.4195 235.887 10.1954C234.865 9.96611 233.798 9.9852 232.775 10.1933C232.322 10.2854 231.916 10.4856 231.473 10.597C231.018 10.711 230.798 10.4357 230.468 10.159C229.673 9.49223 228.508 9.16309 227.502 9.04529C226.374 8.91319 225.203 9.07794 224.127 9.437C223.08 9.78655 222.074 10.3541 221.316 11.181C220.979 11.5491 220.673 11.9681 220.474 12.4306C220.393 12.6205 220.379 12.7329 220.184 12.8024C220.003 12.8668 219.791 12.8687 219.604 12.9299C217.798 13.5221 216.254 14.8728 215.414 16.6072C214.923 17.619 214.691 19.4004 214.754 21.3971C214.818 23.3938 216.68 28.6038 218.422 30.5041C219.977 32.2003 222.262 33.3197 224.468 33.8097C223.004 35.4296 222.03 37.4538 221.309 39.5125C220.526 41.7488 220.042 44.0724 219.863 46.4399C219.693 48.6893 219.677 51.068 220.222 53.2694C220.732 55.328 221.821 57.0168 223.64 58.0882C224.474 58.579 225.37 58.9477 226.272 59.2847C227.161 59.6168 228.052 59.9396 228.983 60.126C230.745 60.4785 232.775 60.418 234.132 59.0604C234.621 58.5709 235.159 57.9559 235.516 57.358C235.645 57.143 235.722 57.0024 235.566 56.7922C235.379 56.5405 235.077 56.3477 234.837 56.1507C233.469 55.028 232.622 53.5292 232.409 51.7481C232.192 49.9408 232.694 47.6082 234.509 46.8194C236.749 45.8458 239.217 46.9634 241.208 48.0051C242.054 45.1135 243.792 42.5099 246.516 41.1835C249.53 39.7161 252.989 39.5443 256.086 38.2853C256.894 37.9572 257.716 37.5848 258.31 36.9163C258.558 36.6369 258.85 36.2745 258.949 35.905C259.079 35.4196 258.756 35.0127 258.506 34.6343C257.181 32.6279 252.159 28.5744 249.545 27.8028Z" fill="#191847"/>
<path fill-rule="evenodd" clip-rule="evenodd" d="M321.449 164.157C327.171 156.643 341.475 161.617 341.466 167.837C341.444 184.167 326.05 261.694 325.246 266.589C324.442 271.483 315.832 273.085 315.331 266.969C314.533 257.237 313.051 223.502 314.534 207.808C314.967 203.224 315.424 198.793 315.884 194.642C307.793 208.712 295.491 228.599 278.976 254.304L269.798 250.244C277.006 227.255 282.916 211.025 287.528 201.555C295.427 185.339 302.832 171.452 305.949 166.561C310.066 160.1 316.744 160.958 321.449 164.157Z" fill="#B28B67"/>
<path fill-rule="evenodd" clip-rule="evenodd" d="M270.455 237.478L301.958 165.23C309.505 153.478 330.665 167.622 328.091 174.439C322.248 189.914 292.532 240.015 290.791 244.626L270.455 237.478Z" fill="#1F28CF"/>
<path fill-rule="evenodd" clip-rule="evenodd" d="M342.264 173.478C342.264 193.956 332.992 242.092 332.985 246.601L310.524 245.868C314.451 204.017 316.106 182.949 315.492 182.666C314.108 182.027 258.788 190.078 242.197 190.686C218.272 191.562 208.375 177.353 207.572 150.388H253.915C293.543 154.968 319.588 158.153 332.05 159.943C340.053 161.093 342.264 167.837 342.264 173.478Z" fill="#2B44FF"/>
<path fill-rule="evenodd" clip-rule="evenodd" d="M268.556 247.979C267.115 250.006 266.251 251.575 265.965 252.685C265.618 254.035 265.343 256.061 265.14 258.763C266.758 259.153 281.297 262.663 308.757 269.291C310.825 265.937 310.675 263.82 308.307 262.942C305.94 262.063 303.978 261.312 302.423 260.689L284.404 247.047C284.057 246.784 283.556 246.844 283.285 247.179C283.28 247.185 283.276 247.191 283.271 247.197L281.18 249.942C278.656 250.418 276.688 250.485 275.274 250.144C274.126 249.867 272.656 249.035 270.864 247.649L270.864 247.649C270.176 247.117 269.173 247.225 268.623 247.891C268.6 247.919 268.577 247.949 268.556 247.979Z" fill="#E4E4E4"/>
<path fill-rule="evenodd" clip-rule="evenodd" d="M314.112 255.437C313.22 257.741 312.774 259.465 312.774 260.609C312.774 262 313.014 264.031 313.493 266.7C315.16 266.7 330.144 266.7 358.445 266.7C359.613 262.961 358.938 260.943 356.422 260.645C353.905 260.347 351.814 260.078 350.149 259.837L329.256 250.82C328.854 250.647 328.383 250.822 328.204 251.211C328.201 251.218 328.198 251.224 328.195 251.231L326.852 254.385C324.522 255.437 322.629 255.963 321.172 255.963C319.989 255.963 318.354 255.501 316.269 254.575L316.269 254.575C315.469 254.22 314.522 254.56 314.156 255.335C314.14 255.368 314.125 255.402 314.112 255.437Z" fill="#E4E4E4"/>
<path d="M353.023 266.7H316.362C314.821 266.7 313.572 267.909 313.572 269.401C313.572 270.892 314.821 272.101 316.362 272.101H353.023C354.564 272.101 355.813 270.892 355.813 269.401C355.813 267.909 354.564 266.7 353.023 266.7Z" fill="#2F3676"/>
<path fill-rule="evenodd" clip-rule="evenodd" d="M205.181 154.824H290.459C294.861 154.824 298.429 158.279 298.429 162.54V200.346H200.399C198.638 200.346 197.211 198.964 197.211 197.26V162.54C197.211 158.279 200.779 154.824 205.181 154.824Z" fill="#2F3676"/>
<path fill-rule="evenodd" clip-rule="evenodd" d="M290.459 154.824H292.207C296.111 154.824 299.44 157.561 300.072 161.29L317.557 264.385H309.04" fill="#2F3676"/>
<path d="M313.572 279.816C321.495 279.816 327.918 273.599 327.918 265.928C327.918 258.258 321.495 252.04 313.572 252.04C305.649 252.04 299.227 258.258 299.227 265.928C299.227 273.599 305.649 279.816 313.572 279.816Z" fill="#191847"/>
<path fill-rule="evenodd" clip-rule="evenodd" d="M207.572 278.273C174.119 278.273 147 252.02 147 219.635C147 187.25 174.119 160.997 207.572 160.997C241.024 160.997 268.143 187.25 268.143 219.635C268.143 252.02 241.024 278.273 207.572 278.273ZM207.572 267.472C234.862 267.472 256.985 246.055 256.985 219.635C256.985 193.216 234.862 171.799 207.572 171.799C180.281 171.799 158.158 193.216 158.158 219.635C158.158 246.055 180.281 267.472 207.572 267.472Z" fill="#191847"/>
<path d="M210.76 168.712H204.384V270.558H210.76V168.712Z" fill="#191847"/>
<path d="M245.895 184.718L243.64 182.536C243.018 181.933 242.009 181.933 241.386 182.536L169.25 252.369C168.628 252.972 168.628 253.949 169.25 254.552L171.505 256.734C172.127 257.337 173.136 257.337 173.759 256.734L245.895 186.901C246.517 186.298 246.517 185.321 245.895 184.718Z" fill="#191847"/>
<path d="M260.174 221.178V218.092C260.174 217.24 259.461 216.549 258.58 216.549H156.565C155.685 216.549 154.971 217.24 154.971 218.092V221.178C154.971 222.03 155.685 222.721 156.565 222.721H258.58C259.461 222.721 260.174 222.03 260.174 221.178Z" fill="#191847"/>
<path d="M243.64 256.734L245.894 254.552C246.516 253.949 246.516 252.972 245.894 252.369L173.758 182.536C173.136 181.933 172.126 181.933 171.504 182.536L169.25 184.718C168.627 185.321 168.627 186.298 169.25 186.901L241.385 256.734C242.008 257.337 243.017 257.337 243.64 256.734Z" fill="#191847"/>
<path fill-rule="evenodd" clip-rule="evenodd" d="M288.431 70.9875L318.641 62.2084C324.276 57.9614 329.592 54.8562 334.587 52.8928C336.04 52.628 338.446 52.7818 335.44 56.0827C332.434 59.3836 329.426 62.9865 330.284 64.3706C331.142 65.7547 334.269 64.7113 335.174 66.9038C335.777 68.3654 330.597 69.4123 319.632 70.0443L296.144 83.4263L288.431 70.9875ZM285.762 122.549L311.185 140.621C318.08 142.422 323.841 144.663 328.467 147.344C329.56 148.308 330.88 150.26 326.348 149.923C321.816 149.586 317.034 149.428 316.408 150.924C315.783 152.421 318.525 154.211 317.261 156.23C316.419 157.576 312.437 154.201 305.317 146.104L280.142 135.998L285.762 122.549Z" fill="#B28B67"/>
<path fill-rule="evenodd" clip-rule="evenodd" d="M246.274 73.8777C260.118 98.8681 280.138 118.025 309.161 137.939L298.171 149.935C265.766 138.276 248.663 131.243 240.265 107.632C238.157 101.706 236.684 82.8154 235.42 72.8762L246.274 73.8777Z" fill="#2026A2"/>
<path fill-rule="evenodd" clip-rule="evenodd" d="M207.571 157.139H268.939C255.038 116.096 247.937 87.9271 247.636 72.6315C247.621 71.8517 246.133 70.4776 245.475 70.6575C240.662 71.9735 235.511 71.4814 230.024 69.1814C215.475 91.8331 210.444 119.722 207.571 157.139Z" fill="#F2F2F2"/>
<path fill-rule="evenodd" clip-rule="evenodd" d="M235.261 69.218C252.852 69.3575 281.392 72.4672 314.307 62.2374L317.557 77.9567C292.68 93.4455 267.49 105.444 245.418 103.74C255.002 143.542 254.561 176.124 233.4 176.124C223.295 176.124 212.388 176.124 200.678 176.124C195.481 142.313 209.14 95.4326 221.803 71.7867C222.286 70.8837 223.316 69.1814 225.74 69.1814C227.853 69.1814 231.023 69.1814 235.248 69.1814C235.253 69.1936 235.257 69.2058 235.261 69.218Z" fill="#1F28CF"/>
<path fill-rule="evenodd" clip-rule="evenodd" d="M1195.17 55.1301C1198.68 51.0166 1201.05 45.9755 1200.65 40.3268C1199.51 24.0514 1176.85 27.6318 1172.45 35.8462C1168.04 44.0607 1168.56 64.8973 1174.26 66.3654C1176.53 66.9509 1181.37 65.5167 1186.29 62.5483L1183.2 84.4175H1201.46L1195.17 55.1301Z" fill="#B28B67"/>
<path fill-rule="evenodd" clip-rule="evenodd" d="M1182.85 26.3787C1185.26 25.9843 1191.73 25.713 1192.93 25.7132C1193.69 25.7132 1194.52 25.8876 1194.97 25.1867C1195.34 24.6127 1195.21 23.642 1195.32 22.9759C1195.44 22.2021 1195.63 21.4384 1195.81 20.6765C1196.34 18.5086 1197.13 16.4462 1198.24 14.5098C1200.32 10.8768 1203.37 8.03115 1207.22 6.37525C1211.48 4.54688 1216.29 4.12822 1220.86 4.49908C1225.76 4.89585 1230.19 6.512 1234.81 8.0329C1239.22 9.48218 1243.83 10.0526 1248.44 9.3449C1253.08 8.63191 1256.59 6.1161 1260.5 3.7283C1264.51 1.28376 1269.09 -0.315055 1273.83 0.0524746C1278.25 0.395666 1282.33 2.22193 1285.99 4.66157C1289.41 6.94414 1292.23 9.69037 1293.83 13.5555C1295.54 17.7132 1295.54 22.2769 1292.72 25.9513C1288.63 31.2775 1281.04 32.6548 1274.73 32.5178C1271.08 32.4389 1267.49 31.7723 1264.05 30.5597C1259.45 28.9425 1255.47 26.2015 1251.17 23.9776C1249.16 22.9341 1247.07 22.0769 1244.88 21.4596C1242.76 20.8602 1240.67 20.5853 1238.75 21.8674C1236.71 23.2237 1234.89 24.556 1232.57 25.405C1230.34 26.2196 1227.97 26.6752 1225.6 26.6568C1220.97 26.6211 1216.41 25.1802 1211.92 24.2151C1208.26 23.4282 1204.34 22.6439 1200.61 23.4003C1199.05 23.716 1196.77 24.3678 1196.21 25.9871C1205.68 27.7037 1209.4 39.4177 1206.73 48.017C1205.29 52.6583 1196.63 58.0839 1193.26 55.6439C1191.12 54.0981 1192.42 52.0687 1193.26 50.729C1194.86 48.1635 1195.41 44.868 1192.44 43.0818C1189.88 41.5413 1187.19 45.1996 1187.13 45.1956C1186.43 45.1401 1180.34 41.6981 1176.15 36.6753C1172.01 36.9205 1171.39 34.1929 1172.37 31.9622C1173.36 29.7315 1179.53 26.9242 1182.85 26.3787Z" fill="#191847"/>
<path d="M1209.06 279.871C1176.72 279.871 1150.5 254.844 1150.5 223.973C1150.5 193.101 1176.72 168.074 1209.06 168.074C1241.4 168.074 1267.62 193.101 1267.62 223.973C1267.62 254.844 1241.4 279.871 1209.06 279.871Z" fill="#C5CFD6"/>
<path fill-rule="evenodd" clip-rule="evenodd" d="M1098.4 271.246C1108.14 249.679 1115.19 230.899 1118.02 220.991C1122.86 204.026 1126.55 189.098 1127.48 183.523C1129.7 170.228 1110.4 169.454 1107.84 176.061C1103.98 186.061 1097.24 218.917 1089.14 268.544L1098.4 271.246ZM1211.43 203.563C1202.49 200.029 1171.18 188.97 1156.08 185.841C1151.74 184.942 1147.53 184.107 1143.58 183.352C1131.83 181.108 1125.74 202.311 1137.06 203.94C1165.25 207.997 1205.21 212.187 1208.63 212.657C1213.42 213.316 1217.05 205.784 1211.43 203.563Z" fill="#B28B67"/>
<path fill-rule="evenodd" clip-rule="evenodd" d="M1136.37 177.517L1184.73 152.9V147.541H1178.97C1132.19 159.462 1108.28 167.102 1107.25 170.461C1107.24 170.497 1107.23 170.533 1107.22 170.569C1107.2 170.6 1107.18 170.631 1107.15 170.663C1097.88 183.414 1092.33 245.668 1090.51 250.329L1108.27 252.98C1115.07 227.778 1136.81 210.221 1136.23 180.037C1136.39 179.151 1136.43 178.312 1136.37 177.517Z" fill="#1F28CF"/>
<path fill-rule="evenodd" clip-rule="evenodd" d="M1180.71 192.138C1185.13 191.252 1189.21 190.461 1192.69 189.85C1215.21 185.9 1221.78 173.844 1217.9 147.541H1176.4C1169.63 149.488 1134.4 164.26 1116.12 172.118C1104.02 177.318 1107.84 196.065 1114.69 200.944C1114.73 201.243 1114.85 201.446 1115.07 201.537C1151.92 216.81 1181.07 208.797 1190.81 211.357L1195.31 197.148L1180.71 192.138Z" fill="#2B44FF"/>
<path fill-rule="evenodd" clip-rule="evenodd" d="M1208.37 201.304C1210.79 201.535 1212.5 201.898 1213.51 202.392C1214.75 202.993 1216.44 204.076 1218.61 205.64C1217.91 207.07 1211.64 219.921 1199.8 244.194C1196 243.58 1194.5 242.13 1195.29 239.842C1196.08 237.555 1196.71 235.645 1197.19 234.114L1197.95 212.298C1197.96 211.879 1198.31 211.55 1198.73 211.565C1198.74 211.565 1198.75 211.565 1198.75 211.566L1202.11 211.776C1204.02 210.233 1205.27 208.837 1205.88 207.587C1206.38 206.572 1206.65 204.971 1206.71 202.782L1206.71 202.782C1206.73 201.942 1207.42 201.278 1208.26 201.298C1208.3 201.299 1208.33 201.301 1208.37 201.304Z" fill="#E4E4E4"/>
<path fill-rule="evenodd" clip-rule="evenodd" d="M1102.83 267.248C1103.68 269.519 1104.11 271.218 1104.11 272.346C1104.11 273.717 1103.88 275.719 1103.42 278.35C1101.83 278.35 1087.54 278.35 1060.53 278.35C1059.42 274.665 1060.06 272.675 1062.46 272.381C1064.86 272.087 1066.86 271.822 1068.45 271.585L1088.38 262.697C1088.77 262.526 1089.22 262.699 1089.39 263.082C1089.39 263.089 1089.39 263.095 1089.4 263.102L1090.68 266.211C1092.9 267.248 1094.71 267.767 1096.1 267.767C1097.23 267.767 1098.79 267.311 1100.78 266.398L1100.78 266.398C1101.54 266.048 1102.44 266.384 1102.79 267.147C1102.81 267.18 1102.82 267.214 1102.83 267.248Z" fill="#E4E4E4"/>
<path fill-rule="evenodd" clip-rule="evenodd" d="M1137.57 126.715L1110.02 114.613C1105.19 109.803 1100.53 106.147 1096.03 103.645C1094.69 103.217 1092.39 103.088 1094.84 106.667C1097.29 110.246 1099.71 114.12 1098.73 115.375C1097.75 116.629 1094.91 115.244 1093.79 117.284C1093.05 118.644 1097.83 120.271 1108.14 122.164L1128.77 137.988L1137.57 126.715ZM1248.98 130.049L1233.4 133.141C1249.07 162.349 1257.48 177.829 1258.61 179.581C1261.17 183.524 1258.78 190.751 1257.9 194.557C1263.44 195.844 1261.25 187.517 1268.26 189.256C1274.65 190.843 1280.06 194.915 1286.02 189.423C1286.76 188.747 1287.29 186.637 1284.79 185.554C1278.57 182.857 1269.38 177.806 1267.89 175.845C1265.85 173.172 1259.55 157.906 1248.98 130.049Z" fill="#B28B67"/>
<path fill-rule="evenodd" clip-rule="evenodd" d="M1191.04 71.7412L1184.47 70.6132C1170.14 84.5079 1164.3 117.89 1154.75 122.308C1145.73 126.486 1132.93 122.443 1117.72 116.985L1113.07 127.39C1126.88 142.339 1156.32 154.968 1168.25 147.758C1187.33 136.231 1191.73 95.0599 1191.04 71.7412Z" fill="#DB2721"/>
<path fill-rule="evenodd" clip-rule="evenodd" d="M1219.71 154.385C1193.34 154.385 1173.94 154.385 1161.52 154.385C1158.86 154.385 1159.36 150.546 1159.75 148.608C1164.18 126.249 1181.5 102.146 1181.5 70.318L1198.28 67.6861C1212.17 90.0137 1216.97 117.503 1219.71 154.385Z" fill="#DDE3E9"/>
<path fill-rule="evenodd" clip-rule="evenodd" d="M1225.51 131.747C1237.37 153.144 1247.35 168.549 1255.42 177.961L1267.62 175.572C1259.76 126.847 1237.01 90.8852 1199.37 67.6861H1196.34L1192.72 67.6861C1177.65 119.049 1173.5 153.272 1180.26 170.356H1232.64C1231.81 157.856 1229.15 144.636 1225.51 131.747H1225.51Z" fill="#FF4133"/>
</svg>
