<svg width="676" height="130" viewBox="0 0 676 130" fill="none" xmlns="http://www.w3.org/2000/svg">
<path fill-rule="evenodd" clip-rule="evenodd" d="M0 15.2174L56.3333 24.8379C112.667 34.4584 225.333 53.6994 338 56.0216C450.667 58.3438 563.333 44.0789 619.667 36.7806L676 29.814V130H619.667C563.333 130 450.667 130 338 130C225.333 130 112.667 130 56.3333 130H0V15.2174Z" fill="#66D7D1"/>
<path fill-rule="evenodd" clip-rule="evenodd" d="M109.514 24.5405C107.79 22.7261 106.623 20.5025 106.818 18.0109C107.38 10.8319 118.526 12.4112 120.694 16.0345C122.862 19.6579 122.604 28.8488 119.802 29.4964C118.685 29.7546 116.304 29.122 113.882 27.8126L115.402 37.459H106.423L109.514 24.5405Z" fill="#B28B67"/>
<path fill-rule="evenodd" clip-rule="evenodd" d="M117.147 12.0882C115.92 11.7528 114.139 11.639 113.39 11.716C113.816 10.8004 113.985 9.78025 113.847 8.78701C113.713 7.82188 113.232 7.00011 112.787 6.13899C112.582 5.74207 112.35 5.34731 112.003 5.04371C111.651 4.73441 111.204 4.53024 110.735 4.43284C110.256 4.33313 109.755 4.34143 109.274 4.43192C109.062 4.47194 108.871 4.55901 108.663 4.60742C108.45 4.65701 108.346 4.5373 108.191 4.41699C107.818 4.1271 107.271 3.98399 106.799 3.93278C106.27 3.87534 105.72 3.94697 105.215 4.10309C104.723 4.25506 104.251 4.50185 103.895 4.86137C103.737 5.0214 103.593 5.20356 103.5 5.40467C103.462 5.4872 103.455 5.53609 103.364 5.56632C103.279 5.59431 103.179 5.59512 103.092 5.62176C102.244 5.8792 101.519 6.46649 101.124 7.22055C100.894 7.66047 100.785 8.43501 100.815 9.30314C100.845 10.1713 101.719 12.4365 102.537 13.2627C103.267 14.0002 104.339 14.4869 105.375 14.6999C104.688 15.4042 104.23 16.2843 103.892 17.1794C103.524 18.1517 103.297 19.1619 103.213 20.1913C103.133 21.1693 103.126 22.2035 103.382 23.1606C103.621 24.0557 104.132 24.79 104.986 25.2558C105.378 25.4692 105.798 25.6295 106.222 25.776C106.639 25.9204 107.057 26.0607 107.494 26.1418C108.322 26.295 109.275 26.2687 109.912 25.6785C110.141 25.4657 110.394 25.1983 110.561 24.9383C110.622 24.8448 110.658 24.7837 110.585 24.6923C110.497 24.5829 110.355 24.499 110.243 24.4134C109.6 23.9253 109.203 23.2736 109.103 22.4992C109.001 21.7134 109.236 20.6992 110.088 20.3563C111.14 19.933 112.298 20.4189 113.233 20.8718C113.631 19.6146 114.446 18.4826 115.725 17.9059C117.14 17.2679 118.764 17.1932 120.218 16.6458C120.597 16.5032 120.983 16.3413 121.262 16.0506C121.378 15.9291 121.515 15.7716 121.562 15.6109C121.623 15.3999 121.471 15.2229 121.354 15.0584C120.732 14.1861 118.374 12.4237 117.147 12.0882Z" fill="#191847"/>
<path fill-rule="evenodd" clip-rule="evenodd" d="M150.902 71.3724C153.588 68.1058 160.303 70.2683 160.299 72.9725C160.289 80.0727 153.062 113.78 152.685 115.908C152.307 118.036 148.265 118.732 148.03 116.073C147.656 111.842 146.96 97.175 147.656 90.3514C147.859 88.3582 148.074 86.4317 148.29 84.6268C144.492 90.7444 138.716 99.3911 130.964 110.567L126.655 108.802C130.038 98.8065 132.813 91.75 134.978 87.6324C138.686 80.5821 142.163 74.5445 143.626 72.4178C145.559 69.6086 148.693 69.9815 150.902 71.3724Z" fill="#B28B67"/>
<path fill-rule="evenodd" clip-rule="evenodd" d="M126.964 103.251L141.753 71.8393C145.296 66.7295 155.229 72.8792 154.021 75.8429C151.278 82.5714 137.327 104.354 136.51 106.359L126.964 103.251Z" fill="#1F28CF"/>
<path fill-rule="evenodd" clip-rule="evenodd" d="M160.674 75.4252C160.674 84.3287 156.321 105.257 156.318 107.218L145.774 106.899C147.617 88.7029 148.394 79.5431 148.106 79.4198C147.456 79.1424 121.487 82.6425 113.698 82.9068C102.467 83.2879 97.8204 77.11 97.4434 65.3862H119.199C137.802 67.3772 150.029 68.762 155.879 69.5405C159.636 70.0405 160.674 72.9725 160.674 75.4252Z" fill="#2B44FF"/>
<path fill-rule="evenodd" clip-rule="evenodd" d="M126.072 107.817C125.396 108.698 124.99 109.38 124.856 109.863C124.693 110.45 124.564 111.331 124.469 112.506C125.228 112.675 132.053 114.201 144.944 117.083C145.915 115.625 145.845 114.705 144.733 114.323C143.622 113.94 142.701 113.614 141.971 113.343L133.512 107.412C133.349 107.298 133.114 107.323 132.987 107.469C132.984 107.472 132.982 107.474 132.98 107.477L131.998 108.671C130.814 108.877 129.89 108.907 129.226 108.758C128.687 108.638 127.997 108.276 127.156 107.673L127.156 107.673C126.833 107.442 126.362 107.489 126.104 107.779C126.093 107.791 126.082 107.804 126.072 107.817Z" fill="#E4E4E4"/>
<path fill-rule="evenodd" clip-rule="evenodd" d="M147.458 111.059C147.039 112.061 146.83 112.811 146.83 113.308C146.83 113.913 146.942 114.796 147.167 115.957C147.95 115.957 154.984 115.957 168.27 115.957C168.818 114.331 168.502 113.454 167.32 113.324C166.139 113.194 165.157 113.077 164.376 112.973L154.567 109.052C154.379 108.977 154.157 109.053 154.073 109.222C154.072 109.225 154.07 109.228 154.069 109.231L153.439 110.602C152.345 111.06 151.456 111.288 150.772 111.288C150.217 111.288 149.449 111.087 148.471 110.685L148.471 110.685C148.095 110.531 147.651 110.678 147.478 111.015C147.471 111.03 147.464 111.045 147.458 111.059Z" fill="#E4E4E4"/>
<path d="M165.725 115.957H148.514C147.791 115.957 147.205 116.482 147.205 117.131C147.205 117.779 147.791 118.305 148.514 118.305H165.725C166.448 118.305 167.034 117.779 167.034 117.131C167.034 116.482 166.448 115.957 165.725 115.957Z" fill="#2F3676"/>
<path fill-rule="evenodd" clip-rule="evenodd" d="M96.321 67.3148H136.355C138.421 67.3148 140.096 68.8167 140.096 70.6694V87.1069H94.0762C93.2496 87.1069 92.5796 86.5062 92.5796 85.7651V70.6694C92.5796 68.8167 94.2547 67.3148 96.321 67.3148Z" fill="#2F3676"/>
<path fill-rule="evenodd" clip-rule="evenodd" d="M136.354 67.3148H137.175C139.008 67.3148 140.57 68.5047 140.867 70.1259L149.075 114.95H145.077" fill="#2F3676"/>
<path d="M147.205 121.659C150.924 121.659 153.939 118.956 153.939 115.621C153.939 112.286 150.924 109.583 147.205 109.583C143.485 109.583 140.47 112.286 140.47 115.621C140.47 118.956 143.485 121.659 147.205 121.659Z" fill="#191847"/>
<path fill-rule="evenodd" clip-rule="evenodd" d="M97.4433 120.989C81.7391 120.989 69.0083 109.574 69.0083 95.4936C69.0083 81.4131 81.7391 69.9987 97.4433 69.9987C113.148 69.9987 125.878 81.4131 125.878 95.4936C125.878 109.574 113.148 120.989 97.4433 120.989ZM97.4433 116.292C110.255 116.292 120.64 106.98 120.64 95.4936C120.64 84.0069 110.255 74.6951 97.4433 74.6951C84.632 74.6951 74.2463 84.0069 74.2463 95.4936C74.2463 106.98 84.632 116.292 97.4433 116.292Z" fill="#191847"/>
<path d="M98.9404 73.3532H95.9473V117.634H98.9404V73.3532Z" fill="#191847"/>
<path d="M115.434 80.3123L114.376 79.3634C114.084 79.1014 113.61 79.1014 113.318 79.3634L79.4539 109.726C79.1616 109.988 79.1616 110.413 79.4539 110.675L80.5121 111.623C80.8043 111.885 81.2781 111.885 81.5703 111.623L115.434 81.2611C115.726 80.9991 115.726 80.5743 115.434 80.3123Z" fill="#191847"/>
<path d="M122.137 96.1644V94.8226C122.137 94.4521 121.802 94.1517 121.389 94.1517H73.4984C73.0851 94.1517 72.7501 94.4521 72.7501 94.8226V96.1644C72.7501 96.535 73.0851 96.8353 73.4984 96.8353H121.389C121.802 96.8353 122.137 96.535 122.137 96.1644Z" fill="#191847"/>
<path d="M114.376 111.623L115.434 110.675C115.726 110.413 115.726 109.988 115.434 109.726L81.5701 79.3635C81.2778 79.1015 80.8041 79.1015 80.5118 79.3635L79.4536 80.3123C79.1614 80.5743 79.1614 80.9991 79.4536 81.2612L113.317 111.623C113.61 111.886 114.083 111.886 114.376 111.623Z" fill="#191847"/>
<path fill-rule="evenodd" clip-rule="evenodd" d="M135.403 30.8642L149.584 27.0472C152.23 25.2006 154.725 23.8505 157.07 22.9969C157.752 22.8818 158.882 22.9486 157.47 24.3838C156.059 25.819 154.647 27.3855 155.05 27.9873C155.453 28.589 156.921 28.1354 157.346 29.0886C157.629 29.7241 155.197 30.1793 150.05 30.4541L139.023 36.2723L135.403 30.8642ZM134.149 53.282L146.084 61.1397C149.321 61.9228 152.025 62.8971 154.197 64.0627C154.71 64.4818 155.33 65.3306 153.202 65.1839C151.075 65.0372 148.83 64.9687 148.536 65.6194C148.243 66.27 149.53 67.0481 148.937 67.926C148.541 68.5113 146.672 67.0437 143.33 63.5235L131.511 59.1294L134.149 53.282Z" fill="#B28B67"/>
<path fill-rule="evenodd" clip-rule="evenodd" d="M115.612 32.1207C122.111 42.9861 131.509 51.3152 145.134 59.9736L139.975 65.189C124.762 60.1202 116.734 57.062 112.791 46.7964C111.801 44.2199 111.11 36.0067 110.516 31.6853L115.612 32.1207Z" fill="#2026A2"/>
<path fill-rule="evenodd" clip-rule="evenodd" d="M97.4429 68.3213H126.252C119.726 50.4767 116.393 38.2292 116.251 31.5789C116.244 31.2399 115.546 30.6425 115.237 30.7207C112.977 31.2929 110.559 31.0789 107.983 30.0789C101.153 39.9275 98.7916 52.053 97.4429 68.3213Z" fill="#F2F2F2"/>
<path fill-rule="evenodd" clip-rule="evenodd" d="M110.442 30.0948C118.7 30.1554 132.098 31.5075 147.55 27.0598L149.075 33.8942C137.397 40.6285 125.572 45.8452 115.21 45.1044C119.709 62.4095 119.502 76.5756 109.568 76.5756C104.824 76.5756 99.7039 76.5756 94.2071 76.5756C91.7674 61.8751 98.1794 41.4924 104.124 31.2116C104.351 30.819 104.834 30.0789 105.972 30.0789C106.964 30.0789 108.452 30.0789 110.436 30.0789C110.438 30.0842 110.44 30.0895 110.442 30.0948Z" fill="#1F28CF"/>
<path fill-rule="evenodd" clip-rule="evenodd" d="M561.067 23.9696C562.712 22.1812 563.826 19.9894 563.64 17.5334C563.104 10.4572 552.468 12.0139 550.399 15.5853C548.33 19.1568 548.576 28.2162 551.25 28.8546C552.316 29.1091 554.588 28.4856 556.9 27.1949L555.449 36.7033H564.017L561.067 23.9696Z" fill="#B28B67"/>
<path fill-rule="evenodd" clip-rule="evenodd" d="M555.283 11.469C556.412 11.2975 559.453 11.1796 560.014 11.1797C560.372 11.1797 560.76 11.2555 560.973 10.9507C561.146 10.7012 561.083 10.2791 561.135 9.98952C561.195 9.65311 561.28 9.32103 561.367 8.98979C561.613 8.04723 561.986 7.1505 562.507 6.30859C563.484 4.72906 564.916 3.4918 566.724 2.77185C568.721 1.9769 570.98 1.79488 573.128 1.95612C575.426 2.12863 577.507 2.8313 579.677 3.49256C581.745 4.12269 583.91 4.37072 586.073 4.063C588.252 3.753 589.899 2.65918 591.737 1.621C593.618 0.558157 595.769 -0.136981 597.993 0.022815C600.069 0.172029 601.983 0.966058 603.7 2.02677C605.306 3.01919 606.632 4.21321 607.38 5.89369C608.185 7.70138 608.184 9.68561 606.861 11.2832C604.942 13.5989 601.379 14.1977 598.416 14.1382C596.701 14.1039 595.018 13.814 593.399 13.2868C591.241 12.5837 589.376 11.392 587.357 10.4251C586.409 9.97133 585.429 9.59867 584.403 9.33024C583.406 9.06965 582.425 8.95013 581.523 9.50755C580.569 10.0972 579.714 10.6765 578.622 11.0457C577.575 11.3998 576.465 11.5979 575.35 11.5899C573.179 11.5744 571.039 10.9479 568.93 10.5283C567.211 10.1862 565.371 9.84518 563.618 10.1741C562.887 10.3113 561.818 10.5947 561.554 11.2987C566.001 12.0451 567.747 17.1381 566.493 20.8769C565.817 22.8949 561.75 25.2539 560.169 24.193C559.167 23.5209 559.775 22.6386 560.169 22.0561C560.923 20.9407 561.18 19.5078 559.786 18.7312C558.583 18.0614 557.318 19.652 557.294 19.6503C556.963 19.6261 554.106 18.1296 552.138 15.9458C550.196 16.0524 549.901 14.8665 550.365 13.8966C550.828 12.9267 553.723 11.7062 555.283 11.469Z" fill="#191847"/>
<path d="M567.588 121.683C552.405 121.683 540.097 110.802 540.097 97.3794C540.097 83.9569 552.405 73.0759 567.588 73.0759C582.77 73.0759 595.078 83.9569 595.078 97.3794C595.078 110.802 582.77 121.683 567.588 121.683Z" fill="#C5CFD6"/>
<path fill-rule="evenodd" clip-rule="evenodd" d="M515.638 117.933C520.212 108.556 523.52 100.391 524.848 96.0831C527.122 88.707 528.851 82.2163 529.289 79.7924C530.331 74.0123 521.269 73.6757 520.071 76.5483C518.258 80.8962 515.094 95.1813 511.291 116.758L515.638 117.933ZM568.698 88.5056C564.501 86.9691 549.803 82.1606 542.715 80.8004C540.678 80.4096 538.703 80.0464 536.847 79.7182C531.33 78.7427 528.471 87.9613 533.785 88.6696C547.019 90.4336 565.78 92.2552 567.385 92.4596C569.636 92.7461 571.336 89.4712 568.698 88.5056Z" fill="#B28B67"/>
<path fill-rule="evenodd" clip-rule="evenodd" d="M533.461 77.1814L556.163 66.4781V64.148H553.463C531.5 69.3313 520.277 72.6531 519.793 74.1134C519.788 74.1291 519.783 74.1448 519.779 74.1606C519.768 74.174 519.757 74.1875 519.746 74.2011C515.394 79.7452 512.787 106.812 511.932 108.839L520.272 109.991C523.463 99.0337 533.67 91.4004 533.399 78.2768C533.472 77.8918 533.491 77.5267 533.461 77.1814Z" fill="#1F28CF"/>
<path fill-rule="evenodd" clip-rule="evenodd" d="M554.276 83.5381C556.354 83.153 558.266 82.8093 559.903 82.5434C570.476 80.8259 573.559 75.5843 571.736 64.148H552.256C549.074 64.9946 532.537 71.4175 523.957 74.8337C518.278 77.0947 520.068 85.2456 523.284 87.3668C523.302 87.4969 523.36 87.5853 523.463 87.6249C540.762 94.2654 554.447 90.7811 559.019 91.8944L561.133 85.7164L554.276 83.5381Z" fill="#2B44FF"/>
<path fill-rule="evenodd" clip-rule="evenodd" d="M567.263 87.5237C568.396 87.6241 569.201 87.7817 569.677 87.9966C570.255 88.258 571.053 88.7288 572.069 89.4088C571.741 90.0305 568.799 95.6179 563.241 106.171C561.457 105.904 560.75 105.274 561.12 104.279C561.491 103.285 561.789 102.455 562.016 101.789L562.369 92.3037C562.376 92.1212 562.541 91.9783 562.738 91.9846C562.741 91.9847 562.745 91.9848 562.748 91.985L564.324 92.0767C565.219 91.4057 565.809 90.7985 566.095 90.2553C566.328 89.814 566.456 89.1176 566.481 88.1661L566.481 88.1661C566.49 87.801 566.818 87.5121 567.212 87.5208C567.229 87.5212 567.246 87.5222 567.263 87.5237Z" fill="#E4E4E4"/>
<path fill-rule="evenodd" clip-rule="evenodd" d="M517.719 116.195C518.119 117.182 518.318 117.921 518.318 118.411C518.318 119.007 518.211 119.878 517.997 121.022C517.25 121.022 510.538 121.022 497.86 121.022C497.337 119.419 497.639 118.554 498.766 118.427C499.894 118.299 500.83 118.183 501.576 118.081L510.935 114.216C511.115 114.142 511.326 114.217 511.407 114.384C511.408 114.386 511.409 114.389 511.411 114.392L512.012 115.744C513.056 116.195 513.904 116.42 514.557 116.42C515.087 116.42 515.819 116.222 516.753 115.825L516.753 115.825C517.111 115.673 517.535 115.819 517.7 116.151C517.707 116.165 517.713 116.18 517.719 116.195Z" fill="#E4E4E4"/>
<path fill-rule="evenodd" clip-rule="evenodd" d="M534.027 55.0936L521.091 49.8319C518.825 47.7404 516.636 46.1508 514.526 45.063C513.895 44.8769 512.817 44.8207 513.967 46.3768C515.117 47.9329 516.252 49.6175 515.792 50.1629C515.332 50.7082 514.001 50.1063 513.475 50.9932C513.124 51.5844 515.369 52.2916 520.208 53.1149L529.897 59.9947L534.027 55.0936ZM586.328 56.5429L579.012 57.8873C586.369 70.5864 590.315 77.3169 590.849 78.0788C592.05 79.7932 590.929 82.9352 590.515 84.5898C593.113 85.1498 592.088 81.5292 595.375 82.2851C598.375 82.9751 600.919 84.7459 603.716 82.3577C604.06 82.0641 604.312 81.1464 603.139 80.6757C600.218 79.503 595.902 77.3071 595.202 76.4546C594.248 75.292 591.29 68.6548 586.328 56.5429Z" fill="#B28B67"/>
<path fill-rule="evenodd" clip-rule="evenodd" d="M559.128 31.1918L556.041 30.7014C549.317 36.7426 546.573 51.2564 542.091 53.1775C537.855 54.9939 531.849 53.2362 524.71 50.8629L522.523 55.387C529.01 61.8865 542.829 67.3775 548.43 64.2428C557.385 59.231 559.453 41.3304 559.128 31.1918Z" fill="#DB2721"/>
<path fill-rule="evenodd" clip-rule="evenodd" d="M572.586 67.1239C560.207 67.1239 551.102 67.1239 545.27 67.1239C544.022 67.1239 544.257 65.4546 544.437 64.6123C546.52 54.8908 554.649 44.4114 554.649 30.573L562.528 29.4287C569.045 39.1364 571.299 51.0884 572.586 67.1239Z" fill="#DDE3E9"/>
<path fill-rule="evenodd" clip-rule="evenodd" d="M575.31 57.2812C580.879 66.5842 585.56 73.282 589.352 77.3744L595.078 76.3357C591.39 55.151 580.709 39.5153 563.036 29.4287H561.614L559.916 29.4287C552.843 51.7605 550.893 66.6402 554.066 74.0678H578.655C578.266 68.6329 577.019 62.8853 575.31 57.2812H575.31Z" fill="#FF4133"/>
</svg>
