<svg width="78" height="78" viewBox="0 0 78 78" fill="none" xmlns="http://www.w3.org/2000/svg">
<circle cx="39" cy="39" r="38.75" stroke="#C4C4C4" stroke-width="0.5"/>
<path d="M53 40.3508C53 48.9093 47.4402 55 39.2295 55C31.3574 55 25 48.2984 25 40C25 31.7016 31.3574 25 39.2295 25C43.0623 25 46.2869 26.4819 48.7713 28.9254L44.8984 32.8508C39.832 27.6976 30.4107 31.5685 30.4107 40C30.4107 45.2319 34.3754 49.4718 39.2295 49.4718C44.8639 49.4718 46.9754 45.2137 47.3082 43.006H39.2295V37.8468H52.7762C52.9082 38.6149 53 39.3528 53 40.3508Z" fill="#2C1244"/>
</svg>
