<svg width="27" height="27" viewBox="0 0 27 27" fill="none" xmlns="http://www.w3.org/2000/svg">
<path d="M27.0001 13.8279C27.0001 12.7239 26.9082 11.9182 26.7092 11.0828H13.7754V16.0658H21.3673C21.2143 17.3042 20.3877 19.1691 18.5509 20.4223L18.5252 20.5891L22.6146 23.6771L22.898 23.7047C25.5 21.3623 27.0001 17.9159 27.0001 13.8279Z" fill="#4285F4"/>
<path d="M13.777 26.9572C17.4964 26.9572 20.6189 25.7636 22.8996 23.7047L18.5526 20.4224C17.3893 21.2131 15.828 21.7651 13.777 21.7651C10.1341 21.7651 7.04229 19.4228 5.94013 16.1853L5.77858 16.1987L1.52631 19.4064L1.4707 19.5571C3.73602 23.9434 8.38916 26.9572 13.777 26.9572Z" fill="#34A853"/>
<path d="M5.93881 16.1853C5.648 15.3498 5.47969 14.4546 5.47969 13.5296C5.47969 12.6045 5.648 11.7094 5.92351 10.8739L5.91581 10.696L1.61025 7.43677L1.46938 7.50208C0.535729 9.32228 0 11.3663 0 13.5296C0 15.6929 0.535729 17.7368 1.46938 19.557L5.93881 16.1853Z" fill="#FBBC05"/>
<path d="M13.777 5.2939C16.3638 5.2939 18.1087 6.38302 19.1036 7.29318L22.9914 3.59311C20.6037 1.42978 17.4964 0.101929 13.777 0.101929C8.38916 0.101929 3.73602 3.11566 1.4707 7.50197L5.92483 10.8738C7.0423 7.6363 10.1342 5.2939 13.777 5.2939Z" fill="#EB4335"/>
</svg>
